<svg xmlns="http://www.w3.org/2000/svg" viewBox="0 0 392.8 163.53"><g id="Шар_2" data-name="Шар 2"><g id="Шар_1-2" data-name="Шар 1"><path d="M0,0H50.4Q63,0,68.7,5.7T74.4,24V36q0,12.6-5.7,18.3T50.4,60H21.6V84H0ZM52.8,24q0-7.2-7.2-7.2h-24V43.2h24q7.2,0,7.2-7.2Z"/><path d="M124.8,84H81.6V67.2H92.4V16.8H81.6V0h43.2V16.8H114V67.2h10.8Z"/><path d="M199.2,16.8l-42,50.4h42V84H130.8V67.2l42-50.4h-42V0h68.4Z"/><path d="M272.4,16.8l-42,50.4h42V84H204V67.2l42-50.4H204V0h68.4Z"/><path d="M297,84H273.6L305.4,0h24l31.8,84H337.8l-5.4-15h-30Zm10.8-30.6H327l-9.6-28.2Z"/><path d="M235.52,140Q227.95,154.09,221,156a7,7,0,0,1-5.68-.67,7.64,7.64,0,0,1-3.5-4.74q-1.53-5.42-.15-16.44c.48-4,.56-6.5.26-7.58a1.67,1.67,0,0,0-2.29-1.36c-1.2.34-2.72,1.65-4.54,3.94a47.32,47.32,0,0,0-5.34,8.74,112.07,112.07,0,0,0,4,20.42l-9.42,5.19a88.08,88.08,0,0,1-3.48-10.14,85.2,85.2,0,0,1-3.36-26.12,119,119,0,0,1,4.72-27.91c3.5-2.7,6.57-5,9.23-6.81a33.23,33.23,0,0,1,4.61-2.93c.78-.22,1.62.22,2.52,1.33a12.52,12.52,0,0,1,2.15,4.52,24.67,24.67,0,0,1,0,11.42,99.25,99.25,0,0,1-5.27,16.63q5-5.17,6.77-6.64a10.08,10.08,0,0,1,3.82-2,4.9,4.9,0,0,1,4.2.6,6.67,6.67,0,0,1,2.65,4q1.14,4.06.31,13.52t-.23,11.62a2.91,2.91,0,0,0,1.11,1.59,1.85,1.85,0,0,0,1.64.36q2.9-.81,8.21-11.72ZM199,130.25q10.84-23.29,8.35-32.2c-.51-1.8-1.27-2.57-2.26-2.29q-2.49.7-4.59,10.9A96.4,96.4,0,0,0,199,130.25Z" style="fill:#2b90fb"/><path d="M276.05,128.55a15.84,15.84,0,0,1-3.67,4.12,10.59,10.59,0,0,1-3.2,1.81,10.83,10.83,0,0,1-7.17-.71q-3.74,11.67-12.14,14a10.89,10.89,0,0,1-9.6-1.54q-4.35-3-6.19-9.52A25.22,25.22,0,0,1,236.42,117a24.68,24.68,0,0,1,15.4-12.31,14.72,14.72,0,0,1,5.87-.75,4.08,4.08,0,0,1,2.74,1.35,8.93,8.93,0,0,1,1.21,2.73q2.37,8.46,1.23,22a7.29,7.29,0,0,0,5.43.76c2-.56,4.11-3.06,6.28-7.47Zm-22-21.06a5.41,5.41,0,0,0-2,.27q-5.88,1.65-7.47,8.74a30.85,30.85,0,0,0,.73,15.3,15,15,0,0,0,3.44,6.69,4.62,4.62,0,0,0,4.73,1.39q3.21-.9,5.29-7.87a18.77,18.77,0,0,1-7.47-10.29Q249.22,114.51,254,107.49Z" style="fill:#2b90fb"/><path d="M324.26,115a84.19,84.19,0,0,1-7.64,11.15c-2.18,2.55-4.33,4.12-6.47,4.72a6.46,6.46,0,0,1-6.29-1.3,14.17,14.17,0,0,1-4.1-7.18,52.46,52.46,0,0,1-6.63,10.57,14.5,14.5,0,0,1-6.95,4.76,6.75,6.75,0,0,1-6.31-1.3,13.32,13.32,0,0,1-4.26-7.14Q273,119.86,274.48,101l11.39-5.8q-1.33,23.76.37,29.9,1.23,4.34,4.48,3.42c1.56-.44,3.15-2.26,4.75-5.46s2.42-5.82,2.46-7.88l.5-20.92,11.6-6q-.43,14.81-.46,20.76a33.89,33.89,0,0,0,.59,8.17c.79,2.84,2.16,4,4.09,3.44q2.34-.66,5.75-6.26l2.79-4.63Z" style="fill:#2b90fb"/><path d="M330.67,84.59q2.9-1.7,5.91-3.1c2-.94,3.23-1.47,3.65-1.59s.48,0,.55.23a3.15,3.15,0,0,1,0,1.5,12.48,12.48,0,0,0,.4,4.18c.45,1.57,2,3.45,4.52,5.65a14.4,14.4,0,0,1,4.83,6.79q1.95,6.91-2.86,15.19t-11.91,10.28a10.51,10.51,0,0,1-6.06,0q-3-.92-3.51-2.77-.3-1.08,1.35-4.81c1.1-2.49,2-3.84,2.74-4q1.44-.4,3.62,3t4.93,2.61a7.4,7.4,0,0,0,4.45-4,8.15,8.15,0,0,0,.87-6.17c-.53-1.9-2.27-4.14-5.2-6.73a35.28,35.28,0,0,1-6.31-6.8,125.34,125.34,0,0,1-8.41,21l-1,.29-1.15-4.06Q329.83,96.29,330.67,84.59Z" style="fill:#2b90fb"/><path d="M392.8,95.67a57.92,57.92,0,0,1-7.95,11.24,20.22,20.22,0,0,1-9.32,5.52,13.62,13.62,0,0,1-11-1.13,14.89,14.89,0,0,1-6.68-9.29,27,27,0,0,1,1.76-19.2Q364,73.2,372.13,70.92a10.37,10.37,0,0,1,7.34.27,7.41,7.41,0,0,1,4.13,5Q386.24,85.53,368,97q4.29,8.31,11.92,6.15a11.45,11.45,0,0,0,5.24-3.2q2.26-2.37,6.18-9.42Zm-26-1.69Q377.42,87.47,375,78.7q-1.21-4.33-4.38-3.44c-2,.56-3.46,2.6-4.41,6.14S365.41,89.13,366.77,94Z" style="fill:#2b90fb"/></g></g></svg>